<svg width="17" height="23" viewBox="0 0 17 23" fill="none" xmlns="http://www.w3.org/2000/svg">
<path id="Vector" opacity="0.4" d="M11.7256 12.8147C12.2658 11.53 12.571 10.1736 12.629 8.79943C13.8476 8.68273 14.9734 8.15423 15.7829 7.31883C16.5923 6.48342 17.0263 5.40218 16.9988 4.28969C16.0408 4.30987 15.1105 4.58555 14.3238 5.08241C13.5371 5.57927 12.9288 6.27533 12.5747 7.08389C12.5053 6.40889 12.3779 5.73986 12.1938 5.08288C12.5273 4.1584 12.5167 3.15998 12.1637 2.24147C11.8108 1.32297 11.135 0.535358 10.2405 0C9.59308 0.895972 9.32483 1.97456 9.4854 3.03625C9.64598 4.09795 10.2245 5.07092 11.114 5.7752C11.3072 6.57181 11.4083 7.38456 11.4155 8.20024C11.1451 7.38348 10.6209 6.65494 9.90574 6.10208C9.19061 5.54921 8.31496 5.19551 7.38392 5.08344C7.22178 6.2003 7.53418 7.33132 8.25758 8.24648C8.98098 9.16164 10.0611 9.79223 11.2782 10.01C11.0124 11.6272 10.3703 13.1744 9.39454 14.5486C9.46766 13.5789 9.18791 12.6142 8.59833 11.803C8.00875 10.9918 7.14199 10.379 6.1314 10.0588C5.73811 11.0869 5.77491 12.2105 6.23482 13.2155C6.69473 14.2206 7.54561 15.0369 8.62545 15.5092C8.13008 16.0749 7.5784 16.5979 6.9774 17.0717C6.03452 17.8109 4.97802 18.4213 3.84123 18.8837C4.59288 18.0213 4.96477 16.936 4.88468 15.8385C4.8046 14.7411 4.27825 13.7098 3.40785 12.945C2.53563 13.7645 2.04468 14.8576 2.03707 15.9973C2.02945 17.1369 2.50575 18.2354 3.36696 19.0644C2.4514 19.3999 1.49606 19.6379 0.520103 19.7734C0.367744 19.7941 0.229637 19.8663 0.133486 19.9756C0.0373345 20.0849 -0.00974753 20.2232 0.00168387 20.3627C0.0131153 20.5022 0.082216 20.6326 0.195122 20.7278C0.308028 20.823 0.456387 20.8759 0.61044 20.8759C0.641104 20.8758 0.671719 20.8736 0.701999 20.8692C1.56895 20.7501 2.42158 20.5569 3.24854 20.2922C3.7331 21.3348 4.63868 22.1696 5.77949 22.6252C6.9203 23.0807 8.20984 23.1226 9.38355 22.7422C9.03233 21.8497 8.37549 21.0829 7.50933 20.5542C6.64317 20.0255 5.61327 19.7627 4.57064 19.8044C5.62619 19.3505 6.61532 18.7788 7.51515 18.1027C8.49952 18.7747 9.72713 19.0841 10.9521 18.969C12.177 18.8539 13.3088 18.3227 14.1208 17.4819C13.4491 16.9492 12.6297 16.5938 11.7513 16.454C10.873 16.3143 9.96923 16.3956 9.13818 16.6893C9.79065 16.0195 10.3635 15.2892 10.8473 14.5103C12.1071 14.7752 13.4312 14.5754 14.529 13.9548C15.6269 13.3342 16.4088 12.3435 16.7033 11.2001C15.7905 11.007 14.8357 11.0566 13.9531 11.3429C13.0704 11.6292 12.2972 12.1402 11.7256 12.8147Z" fill="white"/>
</svg>
